# xmcd CD Database Entry
#
# Track frame offsets:
# 150
# 18797
# 35265
# 49252
# 72355
# 87937
# 99647
# 112522
# 142450
# 154402
# 171652
# 197227
# 220527
# 240902
# 265260
# 297720
# 325490
#
# Disc length: 4708 seconds
#
# Revision: 2
# Processed by: cddbd v1.4PL0 Copyright (c) Steve Scherf et al.
# Submitted via: tcd 2.0b
#
DISCID=fe126211
DTITLE=Nina Simone - Forbidden Fruit - At Newport
DYEAR=1900
DGENRE=
TTITLE0=Rags and Old Iron
TTITLE1=No Good Man
TTITLE2=Gin House Blues
TTITLE3=I'll Look Around
TTITLE4=I Love to Love
TTITLE5=Work Song
TTITLE6=Where Can I Go Without You
TTITLE7=Just Say I Love Him
TTITLE8=Memphis in June
TTITLE9=Forbidden Fruit
TTITLE10=Trouble in Mind
TTITLE11=Porgy
TTITLE12=Little Liza Jane
TTITLE13=You'd Be So Nice to Come Home to
TTITLE14=Flo Me La
TTITLE15=Nina's Blues
TTITLE16=In the Evening by the Moonlight
EXTD=
EXTT0=
EXTT1=
EXTT2=
EXTT3=
EXTT4=
EXTT5=
EXTT6=
EXTT7=
EXTT8=
EXTT9=
EXTT10=
EXTT11=
EXTT12=
EXTT13=
EXTT14=
EXTT15=
EXTT16=
PLAYORDER=
